<svg width="50" height="36" viewBox="0 0 50 36" fill="none" xmlns="http://www.w3.org/2000/svg">
<g opacity="0.9">
<mask id="path-1-outside-1_8370_2487" maskUnits="userSpaceOnUse" x="0" y="-0.454529" width="50" height="37" fill="black">
<rect fill="white" y="-0.454529" width="50" height="37"/>
<path d="M37.8127 0.545471C37.49 0.550212 37.1821 0.680382 36.9536 0.907956L32.8854 4.96767C32.6518 5.19999 32.5209 5.51549 32.5209 5.84478C32.5209 6.17408 32.6522 6.48958 32.8859 6.72232L33.0824 6.918C32.6462 7.37703 32.0795 7.69209 31.4588 7.82097C30.8381 7.94985 30.1929 7.88605 29.6093 7.63865C28.831 7.30807 27.9719 7.21755 27.1419 7.37832C26.3113 7.53908 25.5486 7.94381 24.9504 8.5403L24.4731 9.01657C23.925 8.40023 23.1986 7.96878 22.3939 7.78167C20.6633 7.47091 18.8902 7.47479 17.1609 7.79417C17.6019 7.30453 17.5824 6.55583 17.1164 6.08997L13.0465 2.02849C12.5614 1.5449 11.7749 1.54447 11.2899 2.02806L1.36377 11.9336C0.878742 12.4176 0.878742 13.2025 1.36377 13.6865L5.4337 17.748C5.91873 18.232 6.70523 18.232 7.1903 17.748L7.36565 17.5713C8.41605 18.7226 9.24189 20.0591 9.80159 21.5125C10.4542 22.7 11.3651 23.7258 12.4677 24.5145C12.0583 25.0015 11.8695 25.6364 11.9473 26.2674C12.025 26.8985 12.3615 27.4692 12.8768 27.8432C13.392 28.2169 14.0399 28.3604 14.6653 28.2393C14.4986 28.7613 14.5241 29.3255 14.7383 29.8297C14.9521 30.3344 15.34 30.7461 15.8315 30.9896C16.3234 31.2336 16.8862 31.2935 17.4184 31.159C17.2529 31.8124 17.3834 32.505 17.776 33.0533C18.1681 33.6016 18.7819 33.9498 19.4548 34.0059C20.1278 34.0619 20.7912 33.8197 21.2688 33.3438L21.4861 33.1292C21.4774 33.7408 21.7137 34.33 22.143 34.7671C22.5719 35.2037 23.158 35.4515 23.7709 35.4545C24.3838 35.458 24.9725 35.217 25.4066 34.7847L27.2011 32.996C27.2698 32.9271 27.3337 32.8542 27.3929 32.7775C27.8576 33.1016 28.4256 33.243 28.9884 33.1745C29.5512 33.1059 30.0686 32.8318 30.4414 32.4055C30.8141 31.9788 31.0154 31.4302 31.0072 30.8646L31.3177 31.1724C31.8412 31.6956 32.5854 31.9349 33.3166 31.815C34.0478 31.6948 34.6758 31.2301 35.0036 30.5669C35.3315 29.904 35.3189 29.1239 34.9695 28.4718C35.6515 28.5256 36.3218 28.2735 36.7987 27.7839C37.2755 27.2942 37.5087 26.618 37.4353 25.9395L40.0402 23.34C41.1774 22.2043 41.8711 20.7001 41.995 19.0988C42.0689 18.1476 42.2227 17.2041 42.455 16.2783L42.8118 16.63C43.2968 17.1141 44.0833 17.1141 44.5684 16.63L48.6366 12.5703C49.1212 12.0863 49.1212 11.3019 48.6366 10.8178L38.7105 0.912322C38.4729 0.675269 38.149 0.544671 37.813 0.549835L37.8127 0.545471ZM37.8235 1.19199C37.9837 1.1907 38.1375 1.25363 38.2502 1.36698L48.1742 11.2704C48.2856 11.3816 48.3482 11.5324 48.3482 11.6898C48.3482 11.8471 48.2856 11.9979 48.1742 12.1087L44.1082 16.168C43.9968 16.2792 43.8456 16.3421 43.688 16.3421C43.5303 16.3421 43.3796 16.2796 43.2682 16.1684L33.3399 6.26291C33.1088 6.03188 33.1088 5.65777 33.3399 5.42675L37.4101 1.36704C37.5194 1.25713 37.668 1.19414 37.8235 1.19199ZM12.1593 2.3105C12.3196 2.30792 12.4742 2.37041 12.5878 2.48377L16.6559 6.54558C16.887 6.77704 16.887 7.15029 16.6559 7.38174L6.72985 17.2872C6.61842 17.3984 6.46725 17.4609 6.3096 17.4609C6.15239 17.4609 6.00122 17.3984 5.88979 17.2872L1.82384 13.2275C1.71241 13.1163 1.64935 12.9655 1.64935 12.8081C1.64935 12.6508 1.71241 12.5 1.82384 12.3892L11.7499 2.4837C11.8588 2.37509 12.0056 2.31265 12.1593 2.3105ZM33.5378 7.37485L41.9272 15.7425C41.6301 16.8227 41.4361 17.929 41.3489 19.0459C41.2362 20.4928 40.6095 21.8518 39.582 22.878L37.2346 25.2184C37.121 24.974 36.9651 24.7516 36.7742 24.5611L27.0109 14.818C28.3537 14.9003 29.6874 14.5456 30.8108 13.8068C30.9438 13.703 30.9753 13.515 30.8825 13.3741C30.7896 13.2332 30.6043 13.1866 30.4562 13.2676C29.1268 14.1417 27.486 14.4055 25.9487 13.9922C25.5199 13.8767 25.062 13.9991 24.7476 14.3124L20.2721 18.7786C19.8532 19.182 19.252 19.3351 18.6905 19.1812C18.129 19.0273 17.6906 18.5894 17.5368 18.0287C17.383 17.4684 17.5368 16.8684 17.9419 16.4507L25.4087 8.9994C25.9154 8.49382 26.5615 8.15074 27.2651 8.01453C27.9682 7.87833 28.6964 7.95505 29.3559 8.23478C30.0582 8.53175 30.8344 8.6089 31.5811 8.45546C32.3279 8.30159 33.011 7.9244 33.5378 7.37485ZM20.4531 8.21318C21.0599 8.2412 21.6646 8.30887 22.2623 8.41575C22.9426 8.57738 23.5547 8.94805 24.0124 9.47519L17.4811 15.9929C16.9119 16.5739 16.6937 17.4131 16.9075 18.1976C17.1213 18.9816 17.7351 19.5945 18.5212 19.8079C19.3068 20.0213 20.1473 19.8036 20.73 19.2355L25.2055 14.7693C25.3169 14.6581 25.4681 14.5956 25.6258 14.5956C25.783 14.5956 25.9341 14.6581 26.0456 14.7693L36.316 25.018C36.722 25.4356 36.877 26.036 36.7233 26.5976C36.5699 27.1587 36.1307 27.5975 35.5684 27.751C35.006 27.9048 34.404 27.751 33.9855 27.3458L31.3427 24.7085C31.2148 24.5899 31.0157 24.593 30.8917 24.7158C30.7682 24.8391 30.7639 25.0373 30.8822 25.1653L34.1078 28.3842C34.503 28.804 34.6498 29.4001 34.4943 29.9547C34.3388 30.5094 33.9043 30.943 33.348 31.0973C32.7922 31.252 32.1957 31.105 31.775 30.7102L27.0883 26.0333C26.96 25.9165 26.7631 25.9208 26.6404 26.0432C26.5178 26.1656 26.5134 26.363 26.6305 26.4906L29.875 29.7327C30.2659 30.1305 30.4283 30.6982 30.3069 31.2417C30.186 31.7852 29.7977 32.2304 29.2751 32.4256C28.7525 32.6204 28.1664 32.5385 27.7176 32.208C27.9301 31.6683 27.9293 31.0684 27.7163 30.5291C27.503 29.99 27.0931 29.5512 26.5692 29.3016C26.0448 29.0516 25.4453 29.0094 24.8912 29.1831C25.0039 28.6198 24.9007 28.0349 24.6018 27.544C24.3029 27.0531 23.8308 26.6919 23.278 26.532C22.7251 26.3721 22.1326 26.4251 21.6169 26.6803C21.6761 26.0501 21.4713 25.4238 21.0519 24.9497C20.6321 24.4751 20.0348 24.195 19.4011 24.1756C18.7671 24.1558 18.1534 24.398 17.705 24.8454L17.1392 25.41C17.1483 24.7984 16.9116 24.2088 16.4827 23.7717C16.0538 23.3351 15.4677 23.0877 14.8548 23.0842C14.2419 23.0808 13.6528 23.3221 13.2192 23.754L12.9276 24.0428C11.8811 23.3114 11.0147 22.352 10.3945 21.2369C9.80321 19.7145 8.93334 18.3151 7.82986 17.11L16.3138 8.64363C17.6653 8.29365 19.0612 8.14883 20.4558 8.21349L20.4531 8.21318ZM14.7661 23.7313C15.2114 23.711 15.6468 23.8722 15.9715 24.1774C16.2963 24.4826 16.4833 24.9058 16.4902 25.3511C16.4967 25.7959 16.3227 26.2248 16.0074 26.5398L15.3953 27.1484C14.9747 27.5406 14.3795 27.6854 13.8249 27.5302C13.2708 27.3751 12.8376 26.9432 12.6821 26.3898C12.527 25.8368 12.6717 25.2428 13.0648 24.8226L13.6729 24.2119C13.9649 23.9209 14.3541 23.7494 14.7661 23.7313ZM19.3513 24.8498C19.7776 24.8636 20.1818 25.0416 20.4794 25.3463C20.777 25.6515 20.945 26.0592 20.9476 26.485C20.9502 26.9105 20.7874 27.3203 20.4937 27.6289L18.0219 30.0978C17.6012 30.4896 17.0056 30.6344 16.4515 30.4792C15.8974 30.3241 15.4642 29.8922 15.3087 29.3392C15.1536 28.7858 15.2983 28.1922 15.6909 27.772L18.1627 25.3032C18.4818 24.9998 18.9103 24.836 19.3513 24.8498ZM22.6718 27.1122C23.0985 27.1269 23.5032 27.307 23.7999 27.613C24.0971 27.9195 24.2633 28.3285 24.2638 28.7548C24.2646 29.1811 24.0996 29.5906 23.8038 29.8978L22.1591 31.5387L20.8123 32.8826C20.3955 33.299 19.7879 33.4619 19.2182 33.3098C18.6489 33.1576 18.2036 32.7141 18.0511 32.146C17.8982 31.5775 18.0606 30.9711 18.4774 30.5547L21.4732 27.5695C21.7949 27.2617 22.2264 27.0967 22.6718 27.1122ZM25.5996 29.7538C26.0264 29.7676 26.4315 29.9461 26.7291 30.2517C27.0267 30.5568 27.1943 30.9654 27.196 31.3912C27.1981 31.8171 27.0349 32.227 26.7399 32.5351L24.9497 34.3238C24.5324 34.7355 23.9269 34.8945 23.3607 34.7415C22.794 34.5889 22.3513 34.1471 22.1984 33.5821C22.0451 33.0166 22.2049 32.4127 22.6173 31.9959L24.4098 30.2072C24.7298 29.9034 25.1577 29.7396 25.5996 29.7538Z"/>
</mask>
<path d="M37.8127 0.545471C37.49 0.550212 37.1821 0.680382 36.9536 0.907956L32.8854 4.96767C32.6518 5.19999 32.5209 5.51549 32.5209 5.84478C32.5209 6.17408 32.6522 6.48958 32.8859 6.72232L33.0824 6.918C32.6462 7.37703 32.0795 7.69209 31.4588 7.82097C30.8381 7.94985 30.1929 7.88605 29.6093 7.63865C28.831 7.30807 27.9719 7.21755 27.1419 7.37832C26.3113 7.53908 25.5486 7.94381 24.9504 8.5403L24.4731 9.01657C23.925 8.40023 23.1986 7.96878 22.3939 7.78167C20.6633 7.47091 18.8902 7.47479 17.1609 7.79417C17.6019 7.30453 17.5824 6.55583 17.1164 6.08997L13.0465 2.02849C12.5614 1.5449 11.7749 1.54447 11.2899 2.02806L1.36377 11.9336C0.878742 12.4176 0.878742 13.2025 1.36377 13.6865L5.4337 17.748C5.91873 18.232 6.70523 18.232 7.1903 17.748L7.36565 17.5713C8.41605 18.7226 9.24189 20.0591 9.80159 21.5125C10.4542 22.7 11.3651 23.7258 12.4677 24.5145C12.0583 25.0015 11.8695 25.6364 11.9473 26.2674C12.025 26.8985 12.3615 27.4692 12.8768 27.8432C13.392 28.2169 14.0399 28.3604 14.6653 28.2393C14.4986 28.7613 14.5241 29.3255 14.7383 29.8297C14.9521 30.3344 15.34 30.7461 15.8315 30.9896C16.3234 31.2336 16.8862 31.2935 17.4184 31.159C17.2529 31.8124 17.3834 32.505 17.776 33.0533C18.1681 33.6016 18.7819 33.9498 19.4548 34.0059C20.1278 34.0619 20.7912 33.8197 21.2688 33.3438L21.4861 33.1292C21.4774 33.7408 21.7137 34.33 22.143 34.7671C22.5719 35.2037 23.158 35.4515 23.7709 35.4545C24.3838 35.458 24.9725 35.217 25.4066 34.7847L27.2011 32.996C27.2698 32.9271 27.3337 32.8542 27.3929 32.7775C27.8576 33.1016 28.4256 33.243 28.9884 33.1745C29.5512 33.1059 30.0686 32.8318 30.4414 32.4055C30.8141 31.9788 31.0154 31.4302 31.0072 30.8646L31.3177 31.1724C31.8412 31.6956 32.5854 31.9349 33.3166 31.815C34.0478 31.6948 34.6758 31.2301 35.0036 30.5669C35.3315 29.904 35.3189 29.1239 34.9695 28.4718C35.6515 28.5256 36.3218 28.2735 36.7987 27.7839C37.2755 27.2942 37.5087 26.618 37.4353 25.9395L40.0402 23.34C41.1774 22.2043 41.8711 20.7001 41.995 19.0988C42.0689 18.1476 42.2227 17.2041 42.455 16.2783L42.8118 16.63C43.2968 17.1141 44.0833 17.1141 44.5684 16.63L48.6366 12.5703C49.1212 12.0863 49.1212 11.3019 48.6366 10.8178L38.7105 0.912322C38.4729 0.675269 38.149 0.544671 37.813 0.549835L37.8127 0.545471ZM37.8235 1.19199C37.9837 1.1907 38.1375 1.25363 38.2502 1.36698L48.1742 11.2704C48.2856 11.3816 48.3482 11.5324 48.3482 11.6898C48.3482 11.8471 48.2856 11.9979 48.1742 12.1087L44.1082 16.168C43.9968 16.2792 43.8456 16.3421 43.688 16.3421C43.5303 16.3421 43.3796 16.2796 43.2682 16.1684L33.3399 6.26291C33.1088 6.03188 33.1088 5.65777 33.3399 5.42675L37.4101 1.36704C37.5194 1.25713 37.668 1.19414 37.8235 1.19199ZM12.1593 2.3105C12.3196 2.30792 12.4742 2.37041 12.5878 2.48377L16.6559 6.54558C16.887 6.77704 16.887 7.15029 16.6559 7.38174L6.72985 17.2872C6.61842 17.3984 6.46725 17.4609 6.3096 17.4609C6.15239 17.4609 6.00122 17.3984 5.88979 17.2872L1.82384 13.2275C1.71241 13.1163 1.64935 12.9655 1.64935 12.8081C1.64935 12.6508 1.71241 12.5 1.82384 12.3892L11.7499 2.4837C11.8588 2.37509 12.0056 2.31265 12.1593 2.3105ZM33.5378 7.37485L41.9272 15.7425C41.6301 16.8227 41.4361 17.929 41.3489 19.0459C41.2362 20.4928 40.6095 21.8518 39.582 22.878L37.2346 25.2184C37.121 24.974 36.9651 24.7516 36.7742 24.5611L27.0109 14.818C28.3537 14.9003 29.6874 14.5456 30.8108 13.8068C30.9438 13.703 30.9753 13.515 30.8825 13.3741C30.7896 13.2332 30.6043 13.1866 30.4562 13.2676C29.1268 14.1417 27.486 14.4055 25.9487 13.9922C25.5199 13.8767 25.062 13.9991 24.7476 14.3124L20.2721 18.7786C19.8532 19.182 19.252 19.3351 18.6905 19.1812C18.129 19.0273 17.6906 18.5894 17.5368 18.0287C17.383 17.4684 17.5368 16.8684 17.9419 16.4507L25.4087 8.9994C25.9154 8.49382 26.5615 8.15074 27.2651 8.01453C27.9682 7.87833 28.6964 7.95505 29.3559 8.23478C30.0582 8.53175 30.8344 8.6089 31.5811 8.45546C32.3279 8.30159 33.011 7.9244 33.5378 7.37485ZM20.4531 8.21318C21.0599 8.2412 21.6646 8.30887 22.2623 8.41575C22.9426 8.57738 23.5547 8.94805 24.0124 9.47519L17.4811 15.9929C16.9119 16.5739 16.6937 17.4131 16.9075 18.1976C17.1213 18.9816 17.7351 19.5945 18.5212 19.8079C19.3068 20.0213 20.1473 19.8036 20.73 19.2355L25.2055 14.7693C25.3169 14.6581 25.4681 14.5956 25.6258 14.5956C25.783 14.5956 25.9341 14.6581 26.0456 14.7693L36.316 25.018C36.722 25.4356 36.877 26.036 36.7233 26.5976C36.5699 27.1587 36.1307 27.5975 35.5684 27.751C35.006 27.9048 34.404 27.751 33.9855 27.3458L31.3427 24.7085C31.2148 24.5899 31.0157 24.593 30.8917 24.7158C30.7682 24.8391 30.7639 25.0373 30.8822 25.1653L34.1078 28.3842C34.503 28.804 34.6498 29.4001 34.4943 29.9547C34.3388 30.5094 33.9043 30.943 33.348 31.0973C32.7922 31.252 32.1957 31.105 31.775 30.7102L27.0883 26.0333C26.96 25.9165 26.7631 25.9208 26.6404 26.0432C26.5178 26.1656 26.5134 26.363 26.6305 26.4906L29.875 29.7327C30.2659 30.1305 30.4283 30.6982 30.3069 31.2417C30.186 31.7852 29.7977 32.2304 29.2751 32.4256C28.7525 32.6204 28.1664 32.5385 27.7176 32.208C27.9301 31.6683 27.9293 31.0684 27.7163 30.5291C27.503 29.99 27.0931 29.5512 26.5692 29.3016C26.0448 29.0516 25.4453 29.0094 24.8912 29.1831C25.0039 28.6198 24.9007 28.0349 24.6018 27.544C24.3029 27.0531 23.8308 26.6919 23.278 26.532C22.7251 26.3721 22.1326 26.4251 21.6169 26.6803C21.6761 26.0501 21.4713 25.4238 21.0519 24.9497C20.6321 24.4751 20.0348 24.195 19.4011 24.1756C18.7671 24.1558 18.1534 24.398 17.705 24.8454L17.1392 25.41C17.1483 24.7984 16.9116 24.2088 16.4827 23.7717C16.0538 23.3351 15.4677 23.0877 14.8548 23.0842C14.2419 23.0808 13.6528 23.3221 13.2192 23.754L12.9276 24.0428C11.8811 23.3114 11.0147 22.352 10.3945 21.2369C9.80321 19.7145 8.93334 18.3151 7.82986 17.11L16.3138 8.64363C17.6653 8.29365 19.0612 8.14883 20.4558 8.21349L20.4531 8.21318ZM14.7661 23.7313C15.2114 23.711 15.6468 23.8722 15.9715 24.1774C16.2963 24.4826 16.4833 24.9058 16.4902 25.3511C16.4967 25.7959 16.3227 26.2248 16.0074 26.5398L15.3953 27.1484C14.9747 27.5406 14.3795 27.6854 13.8249 27.5302C13.2708 27.3751 12.8376 26.9432 12.6821 26.3898C12.527 25.8368 12.6717 25.2428 13.0648 24.8226L13.6729 24.2119C13.9649 23.9209 14.3541 23.7494 14.7661 23.7313ZM19.3513 24.8498C19.7776 24.8636 20.1818 25.0416 20.4794 25.3463C20.777 25.6515 20.945 26.0592 20.9476 26.485C20.9502 26.9105 20.7874 27.3203 20.4937 27.6289L18.0219 30.0978C17.6012 30.4896 17.0056 30.6344 16.4515 30.4792C15.8974 30.3241 15.4642 29.8922 15.3087 29.3392C15.1536 28.7858 15.2983 28.1922 15.6909 27.772L18.1627 25.3032C18.4818 24.9998 18.9103 24.836 19.3513 24.8498ZM22.6718 27.1122C23.0985 27.1269 23.5032 27.307 23.7999 27.613C24.0971 27.9195 24.2633 28.3285 24.2638 28.7548C24.2646 29.1811 24.0996 29.5906 23.8038 29.8978L22.1591 31.5387L20.8123 32.8826C20.3955 33.299 19.7879 33.4619 19.2182 33.3098C18.6489 33.1576 18.2036 32.7141 18.0511 32.146C17.8982 31.5775 18.0606 30.9711 18.4774 30.5547L21.4732 27.5695C21.7949 27.2617 22.2264 27.0967 22.6718 27.1122ZM25.5996 29.7538C26.0264 29.7676 26.4315 29.9461 26.7291 30.2517C27.0267 30.5568 27.1943 30.9654 27.196 31.3912C27.1981 31.8171 27.0349 32.227 26.7399 32.5351L24.9497 34.3238C24.5324 34.7355 23.9269 34.8945 23.3607 34.7415C22.794 34.5889 22.3513 34.1471 22.1984 33.5821C22.0451 33.0166 22.2049 32.4127 22.6173 31.9959L24.4098 30.2072C24.7298 29.9034 25.1577 29.7396 25.5996 29.7538Z" fill="#B01736"/>
<path d="M37.8127 0.545471C37.49 0.550212 37.1821 0.680382 36.9536 0.907956L32.8854 4.96767C32.6518 5.19999 32.5209 5.51549 32.5209 5.84478C32.5209 6.17408 32.6522 6.48958 32.8859 6.72232L33.0824 6.918C32.6462 7.37703 32.0795 7.69209 31.4588 7.82097C30.8381 7.94985 30.1929 7.88605 29.6093 7.63865C28.831 7.30807 27.9719 7.21755 27.1419 7.37832C26.3113 7.53908 25.5486 7.94381 24.9504 8.5403L24.4731 9.01657C23.925 8.40023 23.1986 7.96878 22.3939 7.78167C20.6633 7.47091 18.8902 7.47479 17.1609 7.79417C17.6019 7.30453 17.5824 6.55583 17.1164 6.08997L13.0465 2.02849C12.5614 1.5449 11.7749 1.54447 11.2899 2.02806L1.36377 11.9336C0.878742 12.4176 0.878742 13.2025 1.36377 13.6865L5.4337 17.748C5.91873 18.232 6.70523 18.232 7.1903 17.748L7.36565 17.5713C8.41605 18.7226 9.24189 20.0591 9.80159 21.5125C10.4542 22.7 11.3651 23.7258 12.4677 24.5145C12.0583 25.0015 11.8695 25.6364 11.9473 26.2674C12.025 26.8985 12.3615 27.4692 12.8768 27.8432C13.392 28.2169 14.0399 28.3604 14.6653 28.2393C14.4986 28.7613 14.5241 29.3255 14.7383 29.8297C14.9521 30.3344 15.34 30.7461 15.8315 30.9896C16.3234 31.2336 16.8862 31.2935 17.4184 31.159C17.2529 31.8124 17.3834 32.505 17.776 33.0533C18.1681 33.6016 18.7819 33.9498 19.4548 34.0059C20.1278 34.0619 20.7912 33.8197 21.2688 33.3438L21.4861 33.1292C21.4774 33.7408 21.7137 34.33 22.143 34.7671C22.5719 35.2037 23.158 35.4515 23.7709 35.4545C24.3838 35.458 24.9725 35.217 25.4066 34.7847L27.2011 32.996C27.2698 32.9271 27.3337 32.8542 27.3929 32.7775C27.8576 33.1016 28.4256 33.243 28.9884 33.1745C29.5512 33.1059 30.0686 32.8318 30.4414 32.4055C30.8141 31.9788 31.0154 31.4302 31.0072 30.8646L31.3177 31.1724C31.8412 31.6956 32.5854 31.9349 33.3166 31.815C34.0478 31.6948 34.6758 31.2301 35.0036 30.5669C35.3315 29.904 35.3189 29.1239 34.9695 28.4718C35.6515 28.5256 36.3218 28.2735 36.7987 27.7839C37.2755 27.2942 37.5087 26.618 37.4353 25.9395L40.0402 23.34C41.1774 22.2043 41.8711 20.7001 41.995 19.0988C42.0689 18.1476 42.2227 17.2041 42.455 16.2783L42.8118 16.63C43.2968 17.1141 44.0833 17.1141 44.5684 16.63L48.6366 12.5703C49.1212 12.0863 49.1212 11.3019 48.6366 10.8178L38.7105 0.912322C38.4729 0.675269 38.149 0.544671 37.813 0.549835L37.8127 0.545471ZM37.8235 1.19199C37.9837 1.1907 38.1375 1.25363 38.2502 1.36698L48.1742 11.2704C48.2856 11.3816 48.3482 11.5324 48.3482 11.6898C48.3482 11.8471 48.2856 11.9979 48.1742 12.1087L44.1082 16.168C43.9968 16.2792 43.8456 16.3421 43.688 16.3421C43.5303 16.3421 43.3796 16.2796 43.2682 16.1684L33.3399 6.26291C33.1088 6.03188 33.1088 5.65777 33.3399 5.42675L37.4101 1.36704C37.5194 1.25713 37.668 1.19414 37.8235 1.19199ZM12.1593 2.3105C12.3196 2.30792 12.4742 2.37041 12.5878 2.48377L16.6559 6.54558C16.887 6.77704 16.887 7.15029 16.6559 7.38174L6.72985 17.2872C6.61842 17.3984 6.46725 17.4609 6.3096 17.4609C6.15239 17.4609 6.00122 17.3984 5.88979 17.2872L1.82384 13.2275C1.71241 13.1163 1.64935 12.9655 1.64935 12.8081C1.64935 12.6508 1.71241 12.5 1.82384 12.3892L11.7499 2.4837C11.8588 2.37509 12.0056 2.31265 12.1593 2.3105ZM33.5378 7.37485L41.9272 15.7425C41.6301 16.8227 41.4361 17.929 41.3489 19.0459C41.2362 20.4928 40.6095 21.8518 39.582 22.878L37.2346 25.2184C37.121 24.974 36.9651 24.7516 36.7742 24.5611L27.0109 14.818C28.3537 14.9003 29.6874 14.5456 30.8108 13.8068C30.9438 13.703 30.9753 13.515 30.8825 13.3741C30.7896 13.2332 30.6043 13.1866 30.4562 13.2676C29.1268 14.1417 27.486 14.4055 25.9487 13.9922C25.5199 13.8767 25.062 13.9991 24.7476 14.3124L20.2721 18.7786C19.8532 19.182 19.252 19.3351 18.6905 19.1812C18.129 19.0273 17.6906 18.5894 17.5368 18.0287C17.383 17.4684 17.5368 16.8684 17.9419 16.4507L25.4087 8.9994C25.9154 8.49382 26.5615 8.15074 27.2651 8.01453C27.9682 7.87833 28.6964 7.95505 29.3559 8.23478C30.0582 8.53175 30.8344 8.6089 31.5811 8.45546C32.3279 8.30159 33.011 7.9244 33.5378 7.37485ZM20.4531 8.21318C21.0599 8.2412 21.6646 8.30887 22.2623 8.41575C22.9426 8.57738 23.5547 8.94805 24.0124 9.47519L17.4811 15.9929C16.9119 16.5739 16.6937 17.4131 16.9075 18.1976C17.1213 18.9816 17.7351 19.5945 18.5212 19.8079C19.3068 20.0213 20.1473 19.8036 20.73 19.2355L25.2055 14.7693C25.3169 14.6581 25.4681 14.5956 25.6258 14.5956C25.783 14.5956 25.9341 14.6581 26.0456 14.7693L36.316 25.018C36.722 25.4356 36.877 26.036 36.7233 26.5976C36.5699 27.1587 36.1307 27.5975 35.5684 27.751C35.006 27.9048 34.404 27.751 33.9855 27.3458L31.3427 24.7085C31.2148 24.5899 31.0157 24.593 30.8917 24.7158C30.7682 24.8391 30.7639 25.0373 30.8822 25.1653L34.1078 28.3842C34.503 28.804 34.6498 29.4001 34.4943 29.9547C34.3388 30.5094 33.9043 30.943 33.348 31.0973C32.7922 31.252 32.1957 31.105 31.775 30.7102L27.0883 26.0333C26.96 25.9165 26.7631 25.9208 26.6404 26.0432C26.5178 26.1656 26.5134 26.363 26.6305 26.4906L29.875 29.7327C30.2659 30.1305 30.4283 30.6982 30.3069 31.2417C30.186 31.7852 29.7977 32.2304 29.2751 32.4256C28.7525 32.6204 28.1664 32.5385 27.7176 32.208C27.9301 31.6683 27.9293 31.0684 27.7163 30.5291C27.503 29.99 27.0931 29.5512 26.5692 29.3016C26.0448 29.0516 25.4453 29.0094 24.8912 29.1831C25.0039 28.6198 24.9007 28.0349 24.6018 27.544C24.3029 27.0531 23.8308 26.6919 23.278 26.532C22.7251 26.3721 22.1326 26.4251 21.6169 26.6803C21.6761 26.0501 21.4713 25.4238 21.0519 24.9497C20.6321 24.4751 20.0348 24.195 19.4011 24.1756C18.7671 24.1558 18.1534 24.398 17.705 24.8454L17.1392 25.41C17.1483 24.7984 16.9116 24.2088 16.4827 23.7717C16.0538 23.3351 15.4677 23.0877 14.8548 23.0842C14.2419 23.0808 13.6528 23.3221 13.2192 23.754L12.9276 24.0428C11.8811 23.3114 11.0147 22.352 10.3945 21.2369C9.80321 19.7145 8.93334 18.3151 7.82986 17.11L16.3138 8.64363C17.6653 8.29365 19.0612 8.14883 20.4558 8.21349L20.4531 8.21318ZM14.7661 23.7313C15.2114 23.711 15.6468 23.8722 15.9715 24.1774C16.2963 24.4826 16.4833 24.9058 16.4902 25.3511C16.4967 25.7959 16.3227 26.2248 16.0074 26.5398L15.3953 27.1484C14.9747 27.5406 14.3795 27.6854 13.8249 27.5302C13.2708 27.3751 12.8376 26.9432 12.6821 26.3898C12.527 25.8368 12.6717 25.2428 13.0648 24.8226L13.6729 24.2119C13.9649 23.9209 14.3541 23.7494 14.7661 23.7313ZM19.3513 24.8498C19.7776 24.8636 20.1818 25.0416 20.4794 25.3463C20.777 25.6515 20.945 26.0592 20.9476 26.485C20.9502 26.9105 20.7874 27.3203 20.4937 27.6289L18.0219 30.0978C17.6012 30.4896 17.0056 30.6344 16.4515 30.4792C15.8974 30.3241 15.4642 29.8922 15.3087 29.3392C15.1536 28.7858 15.2983 28.1922 15.6909 27.772L18.1627 25.3032C18.4818 24.9998 18.9103 24.836 19.3513 24.8498ZM22.6718 27.1122C23.0985 27.1269 23.5032 27.307 23.7999 27.613C24.0971 27.9195 24.2633 28.3285 24.2638 28.7548C24.2646 29.1811 24.0996 29.5906 23.8038 29.8978L22.1591 31.5387L20.8123 32.8826C20.3955 33.299 19.7879 33.4619 19.2182 33.3098C18.6489 33.1576 18.2036 32.7141 18.0511 32.146C17.8982 31.5775 18.0606 30.9711 18.4774 30.5547L21.4732 27.5695C21.7949 27.2617 22.2264 27.0967 22.6718 27.1122ZM25.5996 29.7538C26.0264 29.7676 26.4315 29.9461 26.7291 30.2517C27.0267 30.5568 27.1943 30.9654 27.196 31.3912C27.1981 31.8171 27.0349 32.227 26.7399 32.5351L24.9497 34.3238C24.5324 34.7355 23.9269 34.8945 23.3607 34.7415C22.794 34.5889 22.3513 34.1471 22.1984 33.5821C22.0451 33.0166 22.2049 32.4127 22.6173 31.9959L24.4098 30.2072C24.7298 29.9034 25.1577 29.7396 25.5996 29.7538Z" stroke="#B01736" mask="url(#path-1-outside-1_8370_2487)"/>
</g>
</svg>
