<svg width="36" height="36" viewBox="0 0 36 36" fill="none" xmlns="http://www.w3.org/2000/svg">
<g opacity="0.9" clip-path="url(#clip0_8370_2481)">
<mask id="path-1-outside-1_8370_2481" maskUnits="userSpaceOnUse" x="-4.3522" y="-4.57259" width="44.5477" height="44.5477" fill="black">
<rect fill="white" x="-4.3522" y="-4.57259" width="44.5477" height="44.5477"/>
<path fill-rule="evenodd" clip-rule="evenodd" d="M1.78504 21.5891L2.32648 21.0477C2.75046 20.6237 3.29746 20.396 3.85409 20.3671L2.01922 18.5322C1.56581 18.0788 1.3367 17.4807 1.3362 16.8831L1.33547 16.8765L1.33451 16.8756C1.33619 16.2743 1.56337 15.6748 2.01797 15.2202L3.03304 14.2051C3.49007 13.7481 4.09033 13.5202 4.68967 13.5204C5.28924 13.5195 5.8893 13.7481 6.34581 14.2046L11.3089 19.1678L19.1673 11.3094L14.2049 6.34654C13.7493 5.89096 13.5219 5.29215 13.5202 4.69235L13.5214 4.69115L13.5217 4.68897L13.5212 4.68463C13.5236 4.08508 13.7505 3.48816 14.204 3.03474L15.2205 2.01818C15.6771 1.56164 16.2766 1.33444 16.8755 1.33515C17.4746 1.33467 18.0751 1.56285 18.5316 2.01935L20.367 3.85471C20.3971 3.29833 20.6234 2.75035 21.0461 2.32761L21.5875 1.78618C22.0441 1.32964 22.6432 1.10196 23.2437 1.10198C23.8428 1.1015 24.4423 1.32869 24.8991 1.78544L27.2495 4.1359L27.803 4.68753L31.3123 8.19686L31.8637 8.75013L34.2157 11.1021C34.6698 11.5562 34.8982 12.1569 34.8982 12.7565L34.8989 12.7597C34.8982 13.3575 34.67 13.9581 34.2144 14.4137L33.673 14.9551C33.2502 15.3779 32.7028 15.6051 32.1459 15.6342L33.9813 17.4696C34.4371 17.9254 34.664 18.5247 34.6647 19.125L34.6638 19.126C34.663 19.7272 34.4356 20.326 33.9812 20.7804L32.9647 21.797C32.5079 22.2538 31.9088 22.4815 31.308 22.4817C30.7094 22.4817 30.1106 22.2538 29.6538 21.797L25.0397 17.1824L17.182 25.0401L21.7966 29.6547C22.2524 30.1106 22.4799 30.7094 22.4801 31.3101L22.4789 31.3113C22.4798 31.9109 22.2512 32.511 21.7954 32.9667L20.7803 33.9818C20.3245 34.4376 19.7247 34.666 19.1249 34.6653C18.5263 34.6653 17.9263 34.4386 17.4695 33.9818L15.6342 32.1464C15.6043 32.704 15.378 33.2506 14.9541 33.6745L14.4126 34.216C13.9571 34.6715 13.3565 34.8997 12.7584 34.9006C12.1589 34.8997 11.5579 34.6715 11.1026 34.2162L8.75061 31.8642L8.19812 31.3114L4.68852 27.8023L4.13597 27.2501L1.78551 24.8996C1.3321 24.4462 1.10471 23.8489 1.10272 23.2498L1.10272 23.2459L1.10152 23.2447L1.10272 23.2435C1.10296 22.6427 1.33113 22.043 1.78504 21.5891ZM2.57086 15.7715L3.58594 14.7564C3.89079 14.4516 4.29066 14.3006 4.69029 14.3013C5.09088 14.3001 5.49074 14.4525 5.79462 14.7564L21.244 30.2058C21.5488 30.5106 21.7005 30.9097 21.7015 31.3077L21.7003 31.3113C21.701 31.71 21.5476 32.1084 21.2428 32.4132L20.2277 33.4283C19.924 33.732 19.5239 33.8846 19.1245 33.8846C18.7244 33.8839 18.325 33.7344 18.0202 33.4295L2.57087 17.9802C2.2665 17.6758 2.11359 17.275 2.11577 16.8758L2.11456 16.8746C2.11481 16.4755 2.26626 16.0761 2.57086 15.7715ZM2.33733 22.1409L2.87877 21.5995C3.18217 21.2961 3.58251 21.1427 3.98262 21.1439C4.38225 21.1437 4.78235 21.2949 5.08623 21.5988L14.4023 30.9148C14.7054 31.218 14.8574 31.6173 14.8588 32.0177L14.8576 32.0189C14.8574 32.418 14.7045 32.8184 14.4011 33.1218L13.8596 33.6632C13.5562 33.9666 13.1569 34.1185 12.7577 34.1188C12.3561 34.1185 11.9568 33.9671 11.6534 33.6637L2.33734 24.3477C2.03226 24.0426 1.88057 23.6429 1.88033 23.2462L1.88081 23.2419C1.87983 22.8435 2.03393 22.4443 2.33733 22.1409ZM21.5993 2.87894L22.1407 2.3375C22.4441 2.0341 22.8442 1.88096 23.2446 1.88192C23.6437 1.88216 24.0443 2.03289 24.3482 2.33677L33.6642 11.6528C33.9674 11.956 34.1193 12.3553 34.1208 12.7557L34.1195 12.7569C34.1193 13.1561 33.9664 13.5564 33.663 13.8598L33.1216 14.4012C32.8179 14.7049 32.4178 14.8575 32.0187 14.8578C31.6183 14.8563 31.2189 14.7049 30.9155 14.4015L21.5995 5.08544C21.2944 4.78036 21.1415 4.38194 21.1425 3.984L21.1418 3.98087C21.1418 3.58147 21.2954 3.18282 21.5993 2.87894ZM14.7562 3.58609L15.7728 2.56952C16.0762 2.26615 16.476 2.11517 16.8759 2.11565C17.2753 2.11566 17.6764 2.26687 17.9802 2.57075L30.3635 14.954L33.4298 18.0198C33.7347 18.3247 33.8861 18.7241 33.8873 19.1218L33.8861 19.1254C33.8859 19.525 33.733 19.9229 33.4296 20.2263L32.413 21.2429C32.1094 21.5465 31.709 21.6994 31.3099 21.6992C30.9098 21.6985 30.5104 21.5489 30.2056 21.2441L14.7562 5.79477C14.4519 5.4904 14.2987 5.08981 14.2999 4.69163L14.2999 4.68922C14.2995 4.29079 14.4524 3.88997 14.7562 3.58609ZM11.9915 19.5886L15.8555 15.7246L19.7196 11.8605L24.4883 16.6293L16.7602 24.3573L11.9915 19.5886Z"/>
</mask>
<path fill-rule="evenodd" clip-rule="evenodd" d="M1.78504 21.5891L2.32648 21.0477C2.75046 20.6237 3.29746 20.396 3.85409 20.3671L2.01922 18.5322C1.56581 18.0788 1.3367 17.4807 1.3362 16.8831L1.33547 16.8765L1.33451 16.8756C1.33619 16.2743 1.56337 15.6748 2.01797 15.2202L3.03304 14.2051C3.49007 13.7481 4.09033 13.5202 4.68967 13.5204C5.28924 13.5195 5.8893 13.7481 6.34581 14.2046L11.3089 19.1678L19.1673 11.3094L14.2049 6.34654C13.7493 5.89096 13.5219 5.29215 13.5202 4.69235L13.5214 4.69115L13.5217 4.68897L13.5212 4.68463C13.5236 4.08508 13.7505 3.48816 14.204 3.03474L15.2205 2.01818C15.6771 1.56164 16.2766 1.33444 16.8755 1.33515C17.4746 1.33467 18.0751 1.56285 18.5316 2.01935L20.367 3.85471C20.3971 3.29833 20.6234 2.75035 21.0461 2.32761L21.5875 1.78618C22.0441 1.32964 22.6432 1.10196 23.2437 1.10198C23.8428 1.1015 24.4423 1.32869 24.8991 1.78544L27.2495 4.1359L27.803 4.68753L31.3123 8.19686L31.8637 8.75013L34.2157 11.1021C34.6698 11.5562 34.8982 12.1569 34.8982 12.7565L34.8989 12.7597C34.8982 13.3575 34.67 13.9581 34.2144 14.4137L33.673 14.9551C33.2502 15.3779 32.7028 15.6051 32.1459 15.6342L33.9813 17.4696C34.4371 17.9254 34.664 18.5247 34.6647 19.125L34.6638 19.126C34.663 19.7272 34.4356 20.326 33.9812 20.7804L32.9647 21.797C32.5079 22.2538 31.9088 22.4815 31.308 22.4817C30.7094 22.4817 30.1106 22.2538 29.6538 21.797L25.0397 17.1824L17.182 25.0401L21.7966 29.6547C22.2524 30.1106 22.4799 30.7094 22.4801 31.3101L22.4789 31.3113C22.4798 31.9109 22.2512 32.511 21.7954 32.9667L20.7803 33.9818C20.3245 34.4376 19.7247 34.666 19.1249 34.6653C18.5263 34.6653 17.9263 34.4386 17.4695 33.9818L15.6342 32.1464C15.6043 32.704 15.378 33.2506 14.9541 33.6745L14.4126 34.216C13.9571 34.6715 13.3565 34.8997 12.7584 34.9006C12.1589 34.8997 11.5579 34.6715 11.1026 34.2162L8.75061 31.8642L8.19812 31.3114L4.68852 27.8023L4.13597 27.2501L1.78551 24.8996C1.3321 24.4462 1.10471 23.8489 1.10272 23.2498L1.10272 23.2459L1.10152 23.2447L1.10272 23.2435C1.10296 22.6427 1.33113 22.043 1.78504 21.5891ZM2.57086 15.7715L3.58594 14.7564C3.89079 14.4516 4.29066 14.3006 4.69029 14.3013C5.09088 14.3001 5.49074 14.4525 5.79462 14.7564L21.244 30.2058C21.5488 30.5106 21.7005 30.9097 21.7015 31.3077L21.7003 31.3113C21.701 31.71 21.5476 32.1084 21.2428 32.4132L20.2277 33.4283C19.924 33.732 19.5239 33.8846 19.1245 33.8846C18.7244 33.8839 18.325 33.7344 18.0202 33.4295L2.57087 17.9802C2.2665 17.6758 2.11359 17.275 2.11577 16.8758L2.11456 16.8746C2.11481 16.4755 2.26626 16.0761 2.57086 15.7715ZM2.33733 22.1409L2.87877 21.5995C3.18217 21.2961 3.58251 21.1427 3.98262 21.1439C4.38225 21.1437 4.78235 21.2949 5.08623 21.5988L14.4023 30.9148C14.7054 31.218 14.8574 31.6173 14.8588 32.0177L14.8576 32.0189C14.8574 32.418 14.7045 32.8184 14.4011 33.1218L13.8596 33.6632C13.5562 33.9666 13.1569 34.1185 12.7577 34.1188C12.3561 34.1185 11.9568 33.9671 11.6534 33.6637L2.33734 24.3477C2.03226 24.0426 1.88057 23.6429 1.88033 23.2462L1.88081 23.2419C1.87983 22.8435 2.03393 22.4443 2.33733 22.1409ZM21.5993 2.87894L22.1407 2.3375C22.4441 2.0341 22.8442 1.88096 23.2446 1.88192C23.6437 1.88216 24.0443 2.03289 24.3482 2.33677L33.6642 11.6528C33.9674 11.956 34.1193 12.3553 34.1208 12.7557L34.1195 12.7569C34.1193 13.1561 33.9664 13.5564 33.663 13.8598L33.1216 14.4012C32.8179 14.7049 32.4178 14.8575 32.0187 14.8578C31.6183 14.8563 31.2189 14.7049 30.9155 14.4015L21.5995 5.08544C21.2944 4.78036 21.1415 4.38194 21.1425 3.984L21.1418 3.98087C21.1418 3.58147 21.2954 3.18282 21.5993 2.87894ZM14.7562 3.58609L15.7728 2.56952C16.0762 2.26615 16.476 2.11517 16.8759 2.11565C17.2753 2.11566 17.6764 2.26687 17.9802 2.57075L30.3635 14.954L33.4298 18.0198C33.7347 18.3247 33.8861 18.7241 33.8873 19.1218L33.8861 19.1254C33.8859 19.525 33.733 19.9229 33.4296 20.2263L32.413 21.2429C32.1094 21.5465 31.709 21.6994 31.3099 21.6992C30.9098 21.6985 30.5104 21.5489 30.2056 21.2441L14.7562 5.79477C14.4519 5.4904 14.2987 5.08981 14.2999 4.69163L14.2999 4.68922C14.2995 4.29079 14.4524 3.88997 14.7562 3.58609ZM11.9915 19.5886L15.8555 15.7246L19.7196 11.8605L24.4883 16.6293L16.7602 24.3573L11.9915 19.5886Z" fill="#B01736"/>
<path fill-rule="evenodd" clip-rule="evenodd" d="M1.78504 21.5891L2.32648 21.0477C2.75046 20.6237 3.29746 20.396 3.85409 20.3671L2.01922 18.5322C1.56581 18.0788 1.3367 17.4807 1.3362 16.8831L1.33547 16.8765L1.33451 16.8756C1.33619 16.2743 1.56337 15.6748 2.01797 15.2202L3.03304 14.2051C3.49007 13.7481 4.09033 13.5202 4.68967 13.5204C5.28924 13.5195 5.8893 13.7481 6.34581 14.2046L11.3089 19.1678L19.1673 11.3094L14.2049 6.34654C13.7493 5.89096 13.5219 5.29215 13.5202 4.69235L13.5214 4.69115L13.5217 4.68897L13.5212 4.68463C13.5236 4.08508 13.7505 3.48816 14.204 3.03474L15.2205 2.01818C15.6771 1.56164 16.2766 1.33444 16.8755 1.33515C17.4746 1.33467 18.0751 1.56285 18.5316 2.01935L20.367 3.85471C20.3971 3.29833 20.6234 2.75035 21.0461 2.32761L21.5875 1.78618C22.0441 1.32964 22.6432 1.10196 23.2437 1.10198C23.8428 1.1015 24.4423 1.32869 24.8991 1.78544L27.2495 4.1359L27.803 4.68753L31.3123 8.19686L31.8637 8.75013L34.2157 11.1021C34.6698 11.5562 34.8982 12.1569 34.8982 12.7565L34.8989 12.7597C34.8982 13.3575 34.67 13.9581 34.2144 14.4137L33.673 14.9551C33.2502 15.3779 32.7028 15.6051 32.1459 15.6342L33.9813 17.4696C34.4371 17.9254 34.664 18.5247 34.6647 19.125L34.6638 19.126C34.663 19.7272 34.4356 20.326 33.9812 20.7804L32.9647 21.797C32.5079 22.2538 31.9088 22.4815 31.308 22.4817C30.7094 22.4817 30.1106 22.2538 29.6538 21.797L25.0397 17.1824L17.182 25.0401L21.7966 29.6547C22.2524 30.1106 22.4799 30.7094 22.4801 31.3101L22.4789 31.3113C22.4798 31.9109 22.2512 32.511 21.7954 32.9667L20.7803 33.9818C20.3245 34.4376 19.7247 34.666 19.1249 34.6653C18.5263 34.6653 17.9263 34.4386 17.4695 33.9818L15.6342 32.1464C15.6043 32.704 15.378 33.2506 14.9541 33.6745L14.4126 34.216C13.9571 34.6715 13.3565 34.8997 12.7584 34.9006C12.1589 34.8997 11.5579 34.6715 11.1026 34.2162L8.75061 31.8642L8.19812 31.3114L4.68852 27.8023L4.13597 27.2501L1.78551 24.8996C1.3321 24.4462 1.10471 23.8489 1.10272 23.2498L1.10272 23.2459L1.10152 23.2447L1.10272 23.2435C1.10296 22.6427 1.33113 22.043 1.78504 21.5891ZM2.57086 15.7715L3.58594 14.7564C3.89079 14.4516 4.29066 14.3006 4.69029 14.3013C5.09088 14.3001 5.49074 14.4525 5.79462 14.7564L21.244 30.2058C21.5488 30.5106 21.7005 30.9097 21.7015 31.3077L21.7003 31.3113C21.701 31.71 21.5476 32.1084 21.2428 32.4132L20.2277 33.4283C19.924 33.732 19.5239 33.8846 19.1245 33.8846C18.7244 33.8839 18.325 33.7344 18.0202 33.4295L2.57087 17.9802C2.2665 17.6758 2.11359 17.275 2.11577 16.8758L2.11456 16.8746C2.11481 16.4755 2.26626 16.0761 2.57086 15.7715ZM2.33733 22.1409L2.87877 21.5995C3.18217 21.2961 3.58251 21.1427 3.98262 21.1439C4.38225 21.1437 4.78235 21.2949 5.08623 21.5988L14.4023 30.9148C14.7054 31.218 14.8574 31.6173 14.8588 32.0177L14.8576 32.0189C14.8574 32.418 14.7045 32.8184 14.4011 33.1218L13.8596 33.6632C13.5562 33.9666 13.1569 34.1185 12.7577 34.1188C12.3561 34.1185 11.9568 33.9671 11.6534 33.6637L2.33734 24.3477C2.03226 24.0426 1.88057 23.6429 1.88033 23.2462L1.88081 23.2419C1.87983 22.8435 2.03393 22.4443 2.33733 22.1409ZM21.5993 2.87894L22.1407 2.3375C22.4441 2.0341 22.8442 1.88096 23.2446 1.88192C23.6437 1.88216 24.0443 2.03289 24.3482 2.33677L33.6642 11.6528C33.9674 11.956 34.1193 12.3553 34.1208 12.7557L34.1195 12.7569C34.1193 13.1561 33.9664 13.5564 33.663 13.8598L33.1216 14.4012C32.8179 14.7049 32.4178 14.8575 32.0187 14.8578C31.6183 14.8563 31.2189 14.7049 30.9155 14.4015L21.5995 5.08544C21.2944 4.78036 21.1415 4.38194 21.1425 3.984L21.1418 3.98087C21.1418 3.58147 21.2954 3.18282 21.5993 2.87894ZM14.7562 3.58609L15.7728 2.56952C16.0762 2.26615 16.476 2.11517 16.8759 2.11565C17.2753 2.11566 17.6764 2.26687 17.9802 2.57075L30.3635 14.954L33.4298 18.0198C33.7347 18.3247 33.8861 18.7241 33.8873 19.1218L33.8861 19.1254C33.8859 19.525 33.733 19.9229 33.4296 20.2263L32.413 21.2429C32.1094 21.5465 31.709 21.6994 31.3099 21.6992C30.9098 21.6985 30.5104 21.5489 30.2056 21.2441L14.7562 5.79477C14.4519 5.4904 14.2987 5.08981 14.2999 4.69163L14.2999 4.68922C14.2995 4.29079 14.4524 3.88997 14.7562 3.58609ZM11.9915 19.5886L15.8555 15.7246L19.7196 11.8605L24.4883 16.6293L16.7602 24.3573L11.9915 19.5886Z" stroke="#B01736" stroke-width="0.8" mask="url(#path-1-outside-1_8370_2481)"/>
</g>
<defs>
<clipPath id="clip0_8370_2481">
<rect width="34.9091" height="34.9091" fill="white" transform="translate(0.54541 0.545471)"/>
</clipPath>
</defs>
</svg>
